<svg width="300" height="300" viewBox="0 0 300 300" fill="none" xmlns="http://www.w3.org/2000/svg">
<circle cx="150" cy="150" r="149.5" fill="black" stroke="#6A6565"/>
<path d="M93.3594 100.839C95.5742 62.1812 133.377 54.6979 152.001 55.7886C198.109 59.2114 206.364 84.9835 207.371 103.608C207.975 99.7824 211.901 90.5205 213.915 89.2621C214.418 90.6883 215.425 93.8931 215.425 95.3025C215.425 96.7119 214.754 98.2387 214.418 98.826L211.535 106.628C217.575 120.521 209.217 141.612 203.596 149.917C206.213 159.582 203.931 165.438 202.337 166.276C206.968 176.545 191.347 196.73 182.958 205.539C177.924 219.129 171.8 228.442 169.367 228.945C169.133 228.878 168.894 228.814 168.65 228.752C158.618 226.204 140.566 227.798 132.622 228.945C123.762 228.341 116.178 212.25 113.494 204.28C95.9769 187.569 94.2823 170.639 95.6246 164.263C90.9936 164.263 93.0239 155.035 94.6178 150.421C88.3258 141.612 88.3258 136.075 85.809 131.796C83.7955 128.373 84.9701 118.793 85.809 114.43L86.5553 109.145V100.839C86.1604 99.5072 85.8918 98.5263 85.809 98.071C85.3056 95.3025 87.3191 84.2285 88.3258 90.0172C89.1312 94.6481 92.0171 99.1616 93.3594 100.839Z" fill="#FD3030"/>
<path d="M93.3594 121.981C91.4933 116.382 88.0813 105.987 86.5553 100.839M86.5553 100.839C86.1604 99.5072 85.8918 98.5263 85.809 98.071C85.3056 95.3025 87.3191 84.2285 88.3258 90.0172C89.1312 94.6481 92.0171 99.1616 93.3594 100.839C95.5742 62.1812 133.377 54.6979 152.001 55.7886C198.109 59.2114 206.364 84.9835 207.371 103.608C207.975 99.7824 211.901 90.5205 213.915 89.2621C214.418 90.6883 215.425 93.8931 215.425 95.3025C215.425 96.7119 214.754 98.2387 214.418 98.826L205.861 121.981M86.5553 100.839V109.145L85.809 114.43C84.9701 118.793 83.7955 128.373 85.809 131.796C88.3258 136.075 88.3258 141.612 94.6178 150.421C93.0239 155.035 90.9936 164.263 95.6246 164.263C94.2823 170.639 95.9769 187.569 113.494 204.28C116.178 212.25 123.762 228.341 132.622 228.945C140.566 227.798 158.618 226.204 168.65 228.752C168.894 228.814 169.133 228.878 169.367 228.945C171.8 228.442 177.924 219.129 182.958 205.539C191.347 196.73 206.968 176.545 202.337 166.276C203.931 165.438 206.213 159.582 203.596 149.917C209.217 141.612 217.575 120.521 211.535 106.628" stroke="black"/>
<path d="M110.725 137.837C116.262 141.864 129.852 137.837 133.628 142.87" stroke="black"/>
<path d="M165.592 142.619C165.592 139.347 180.944 141.864 187.488 137.837" stroke="black"/>
<path d="M188.243 107.131C172.941 100.89 176.833 89.7655 180.692 84.9836C207.069 77.3325 213.495 59.4799 213.411 51.51C219.049 82.1144 198.981 101.343 188.243 107.131Z" fill="#FD3030" stroke="black"/>
<path d="M108.964 106.88C130.356 104.615 123.477 86.9971 117.269 83.7252C96.7319 77.6849 89.2486 58.7249 88.0741 50C80.0203 74.9667 98.7286 98.7422 108.964 106.88Z" fill="#FD3030" stroke="black"/>
<path d="M133.376 210.572C135.474 211.411 141.632 212.233 149.484 208.811C149.316 208.811 149.434 208.811 151.246 208.811C153.058 208.811 155.189 209.985 156.028 210.572C158.293 211.495 163.478 212.787 166.095 210.572" stroke="black"/>
<path d="M159.708 220.437C161.128 220.931 162.511 221.577 163.83 222.401C162.645 221.856 161.209 221.175 159.708 220.437Z" fill="#FD3030"/>
<path d="M135.642 222.401C141.011 219.885 154.165 216.361 163.83 222.401C158.545 219.968 148.276 214.851 149.484 213.844" stroke="black"/>
<path d="M108.208 156.461L117.269 165.521C120.541 166.444 127.236 165.924 127.84 156.461" stroke="black"/>
<path d="M108.712 158.978C107.705 159.23 105.641 160.639 105.44 164.263" stroke="black"/>
<path d="M170.122 206.042C166.599 203.777 136.397 204.784 129.098 205.036C121.799 205.287 113.697 178.231 110.761 169.549C112.679 169.884 116.866 169.851 118.276 167.032C117.873 169.649 123.813 174.666 126.833 176.847C133.276 178.055 143.444 183.223 147.723 185.656H149.736C154.434 183.223 164.686 178.559 168.109 179.364C172.387 180.371 180.441 163.76 179.434 167.032C178.629 169.649 181.867 172.233 184.971 172.317C184.971 172.317 173.646 208.307 170.122 206.042Z" fill="black"/>
<path d="M103.427 166.277C99.6515 164.767 108.28 170.304 110.761 169.549M110.761 169.549C113.697 178.231 121.799 205.287 129.098 205.036C136.397 204.784 166.599 203.777 170.122 206.042C173.646 208.307 184.971 172.317 184.971 172.317C181.867 172.233 178.629 169.649 179.434 167.032C180.441 163.76 172.387 180.371 168.109 179.364C164.686 178.559 154.434 183.223 149.736 185.656H147.723C143.444 183.223 133.276 178.055 126.833 176.847C123.813 174.666 117.873 169.649 118.276 167.032C116.866 169.851 112.679 169.884 110.761 169.549Z" stroke="black"/>
<path d="M183.712 163.256C179.081 162.048 178.427 165.27 178.679 167.032C186.128 173.877 192.185 169.884 194.283 167.032C183.209 166.277 189.501 164.767 183.712 163.256Z" fill="#FD3030" stroke="black"/>
<path d="M119.411 186.663C125.048 186.059 127.8 181.881 128.471 179.867C133.102 181.277 133.924 183.475 133.756 184.398C131.743 186.411 126.877 187.418 124.696 187.67C120.585 187.586 113.773 187.267 119.411 186.663Z" fill="#FD3030" stroke="black"/>
<path d="M177.169 188.676C169.92 190.891 164.417 187.754 162.571 185.908C159.048 184.398 169.115 178.861 168.863 180.623C168.662 182.032 174.316 186.579 177.169 188.676Z" fill="#FD3030" stroke="black"/>
<path d="M129.098 167.031L140.423 173.827" stroke="black"/>
<path d="M144.702 176.092C144.366 177.351 143.897 180.22 144.702 181.629" stroke="black"/>
<path d="M151.749 174.834C152.085 175.757 152.756 178.357 152.756 181.377" stroke="black"/>
<path d="M97.3857 139.85C98.8119 144.632 104.433 155.052 115.507 158.474C116.765 158.307 122.05 157.015 133.124 153.189C144.198 149.364 143.276 155.958 141.43 159.733" stroke="black"/>
<path d="M156.279 156.713C157.034 155.287 158.997 152.535 160.81 152.938" stroke="black"/>
<path d="M159.551 159.229C160.055 157.384 162.27 154.045 167.102 155.454C171.934 156.863 171.8 162.249 171.129 164.766L169.115 166.025C168.025 165.186 165.541 163.76 164.333 164.766C163.125 165.773 158.796 168.374 156.783 169.548L163.83 167.283C161.9 169.045 157.236 172.669 154.014 173.072C150.793 173.474 146.967 174.414 144.199 173.072C141.095 170.135 134.635 161.998 127.588 164.766C122.933 166.595 129.098 157.379 127.588 159.229C129.937 155.79 135.642 150.974 139.669 159.229" stroke="black"/>
<path d="M164.836 148.407C166.095 148.156 168.863 147.652 169.87 147.652C170.877 147.652 175.994 148.156 178.427 148.407C181.951 148.743 189.753 147.451 192.773 139.598" stroke="black"/>
<path d="M195.038 136.075C194.283 134.145 191.213 130.79 184.971 132.803C178.73 134.817 172.135 133.642 168.109 132.803C166.347 132.719 162.471 133.558 161.062 137.585V139.598" stroke="black"/>
<path d="M104.685 134.816C103.846 132.551 105.138 128.826 117.018 132.048C128.897 135.269 130.692 134.732 130.105 134.061C132.622 134.984 137.555 137.635 137.152 140.857" stroke="black"/>
<path d="M195.542 125.001C186.146 116.528 167.001 97.7692 165.592 90.5208" stroke="black"/>
<path d="M166.85 96.561C171.716 103.86 183.26 119.212 190.508 122.232" stroke="black"/>
<path d="M103.93 123.742C110.306 119.632 125.323 107.081 134.383 89.7654C134.215 91.1077 133.225 95.101 130.608 100.336" stroke="black"/>
<path d="M150.333 119.633C150.34 121.046 150.233 122.581 149.987 124.246C150.006 122.948 150.11 121.347 150.333 119.633Z" fill="#FD3030"/>
<path d="M142.94 105.621C146.044 106.712 151.8 111.964 149.987 124.246C150.071 118.457 151.85 106.628 158.293 105.621" stroke="black"/>
<path d="M144.954 103.356L149.987 107.635L154.769 103.356" stroke="black"/>
<path d="M182.706 172.065C169.619 212.586 168.864 200.421 165.088 202.267H136.397C131.766 204.884 126.246 195.304 124.316 190.186L113.997 172.569" stroke="#FD3030"/>
<path d="M170.122 193.458C170.525 197.284 167.773 200.589 166.347 201.764C168.159 204.784 171.129 201.68 172.387 199.75C171.464 196.059 169.719 189.633 170.122 193.458Z" fill="#FD3030" stroke="#FD3030"/>
<path d="M133.376 194.213C131.967 197.837 133.46 200.757 134.383 201.764C133.041 201.764 130.256 201.361 129.853 199.75C129.35 197.737 135.138 189.683 133.376 194.213Z" fill="#FD3030" stroke="#FD3030"/>
<path d="M134.635 199.247L134.131 201.009C132.957 200.841 130.96 200.757 132.37 201.764C133.779 202.77 135.641 202.351 136.396 202.015H165.843L168.108 199.247L167.353 198.743L163.326 199.75V201.26L161.313 199.247H157.286L156.531 201.009L155.776 199.247H149.484L148.729 201.764L147.722 199.247H141.43L140.423 201.009V199.247H134.635Z" fill="#FD3030"/>
<path d="M134.131 186.159L132.873 183.139H133.376C137.739 186.327 149.635 191.042 162.32 184.398V186.159V186.914L158.041 189.18L157.286 186.914V189.18C157.286 190.388 151.581 190.857 148.729 190.941L147.722 188.676C147.722 189.263 147.621 190.539 147.219 190.941C146.816 191.344 142.185 189.935 139.92 189.18L138.662 186.914L138.158 188.173L134.131 186.159Z" fill="#FD3030"/>
<path d="M134.635 199.247L134.131 201.009C132.957 200.841 130.96 200.757 132.37 201.764C133.779 202.77 135.641 202.351 136.396 202.015H165.843L168.108 199.247L167.353 198.743L163.326 199.75V201.26L161.313 199.247H157.286L156.531 201.009L155.776 199.247H149.484L148.729 201.764L147.722 199.247H141.43L140.423 201.009V199.247H134.635Z" stroke="#FD3030"/>
<path d="M134.131 186.159L132.873 183.139H133.376C137.739 186.327 149.635 191.042 162.32 184.398V186.159V186.914L158.041 189.18L157.286 186.914V189.18C157.286 190.388 151.581 190.857 148.729 190.941L147.722 188.676C147.722 189.263 147.621 190.539 147.219 190.941C146.816 191.344 142.185 189.935 139.92 189.18L138.662 186.914L138.158 188.173L134.131 186.159Z" stroke="#FD3030"/>
<path d="M137.151 136.075C140.255 135.404 146.866 132.753 148.477 127.518C149.148 129.615 152.001 134.112 158.041 135.32" stroke="black"/>
<path d="M140.675 140.353C142.437 138.676 146.313 135.32 147.722 135.32C149.132 135.32 150.491 135.32 150.994 135.32C152.42 135.991 155.675 137.786 157.286 139.598" stroke="black"/>
<path d="M140.172 108.642C145.457 112.585 152.152 122.988 136.648 133.055" stroke="black"/>
<path d="M159.048 109.145C154.266 111.83 147.823 120.521 160.306 133.81" stroke="black"/>
<path d="M135.138 118.205C132.622 118.122 130.356 115.034 139.417 107.383L146.967 98.826C147.219 98.7421 147.773 98.1213 147.974 96.3092C148.175 94.4971 148.058 89.0105 147.974 86.4937" stroke="black"/>
<path d="M164.837 118.457C166.682 118.457 168.31 116.343 160.055 107.886C157.118 104.531 151.447 97.4668 152.253 96.0574L150.994 76.9297" stroke="black"/>
<path d="M192.773 125.504C170.947 114.145 161.99 100.599 152.001 63.3391" stroke="black"/>
<path d="M102.923 125.504C120.22 123.803 148.015 84.1173 148.477 63.0874" stroke="black"/>
<path d="M140.423 116.192C142.688 122.904 138.712 134.615 104.685 127.769C104.349 127.098 103.325 126.31 101.916 128.525" stroke="black"/>
<path d="M159.067 116.444C156.788 123.124 161.057 135.534 195.29 128.719C195.628 128.051 197.144 127.578 198.562 129.783" stroke="black"/>
<path d="M125.826 177.854C129.936 181.294 140.222 188.123 148.477 187.921C156.732 187.72 165.172 183.139 168.36 180.874" stroke="#FD3030"/>
<path d="M136.649 145.387C136.639 145.185 136.622 144.972 136.597 144.751C135.886 143.506 131.504 143.301 129.098 143.373C115.205 148.407 108.544 141.276 106.95 137.081C115.759 128.776 117.017 137.585 126.581 136.326C133.783 135.379 136.198 141.196 136.597 144.751C136.704 144.938 136.728 145.149 136.649 145.387Z" fill="#FD3030"/>
<path d="M136.649 145.387C136.481 141.947 134.232 135.32 126.581 136.326C117.017 137.585 115.759 128.776 106.95 137.081C108.544 141.276 115.205 148.407 129.098 143.373C131.867 143.29 137.253 143.575 136.649 145.387Z" stroke="black"/>
<path d="M163.122 146.645C163.131 146.459 163.144 146.26 163.163 146.052C163.836 144.927 168.213 145.313 170.626 145.387C184.496 150.491 189.753 137.837 190.508 136.578C178.931 131.796 182.188 137.854 172.639 136.578C165.409 135.612 163.49 142.369 163.163 146.052C163.065 146.216 163.045 146.412 163.122 146.645Z" fill="#FD3030"/>
<path d="M163.122 146.645C163.289 143.158 165 135.557 172.639 136.578C182.188 137.854 178.931 131.796 190.508 136.578C189.753 137.837 184.496 150.491 170.626 145.387C167.861 145.302 162.519 144.808 163.122 146.645Z" stroke="black"/>
<path d="M107.705 141.612C109.512 144.356 113.502 150.098 134.131 147.149" stroke="black"/>
<path d="M199.065 145.387C195.206 151.931 186.64 162.203 178.679 158.223C166.095 151.931 158.796 155.454 159.048 158.223" stroke="black"/>
<circle cx="173.897" cy="140.857" r="3.77858" fill="black" stroke="black"/>
<circle cx="124.568" cy="140.353" r="3.77858" fill="black" stroke="black"/>
<path d="M168.864 188.928L190.521 201.555C193.277 196.981 211.134 198.492 211.134 209.436C218.812 211.86 225.744 216.361 219.703 229.952C225.24 232.972 220.207 250.086 209.133 245.304C197.052 255.17 188.83 246.898 186.23 241.529C172.337 242.536 174.401 233.391 177.169 228.693L166.599 213.089C159.954 203.626 159.468 196.226 160.055 193.71L158.042 189.431L162.572 187.166V185.908C162.572 186.31 166.766 188.089 168.864 188.928Z" fill="white"/>
<path d="M211.134 209.436C211.134 198.492 193.277 196.981 190.521 201.555L168.864 188.928C166.766 188.089 162.572 186.31 162.572 185.908C162.572 185.505 162.572 186.579 162.572 187.166L158.042 189.431L160.055 193.71C159.468 196.226 159.954 203.626 166.599 213.089L177.169 228.693C174.401 233.391 172.337 242.536 186.23 241.529C188.83 246.898 197.052 255.17 209.133 245.304C220.207 250.086 225.24 232.972 219.703 229.952C225.744 216.361 218.812 211.86 211.134 209.436ZM211.134 209.436C211.15 211.017 210.96 212.827 210.526 214.891L211.134 209.436Z" stroke="black"/>
<path d="M173.142 203.022L189.18 221.495C193.068 220.88 200.625 221.865 199.75 230.732C198.414 233.565 193.846 237.974 186.264 232.949" stroke="black"/>
<path d="M195.29 215.103C197.619 216.079 201.147 219.056 196.633 223.157" stroke="black"/>
<path d="M207.37 213.844C214.166 213.844 218.948 233.475 204.099 231.462" stroke="black"/>
<path d="M179.686 201.26L186.733 207.049" stroke="black"/>
<path d="M127.601 187.861L106.977 199.886C104.353 195.53 87.3476 196.968 87.3476 207.39C80.0361 209.699 73.435 213.985 79.1871 226.927C73.9143 229.804 78.7077 246.101 89.2533 241.547C100.758 250.943 108.587 243.065 111.063 237.952C124.293 238.911 122.328 230.203 119.692 225.729L129.758 210.869C136.085 201.858 136.549 194.811 135.989 192.415L137.907 188.34L133.593 186.183V184.985C133.593 185.368 129.598 187.062 127.601 187.861Z" fill="white"/>
<path d="M87.3476 207.39C87.3476 196.968 104.353 195.53 106.977 199.886L127.601 187.861C129.598 187.062 133.593 185.368 133.593 184.985C133.593 184.601 133.593 185.624 133.593 186.183L137.907 188.34L135.989 192.415C136.549 194.811 136.085 201.858 129.758 210.869L119.692 225.729C122.328 230.203 124.293 238.911 111.063 237.952C108.587 243.065 100.758 250.943 89.2533 241.547C78.7077 246.101 73.9143 229.804 79.1871 226.927C73.4349 213.985 80.0361 209.699 87.3476 207.39ZM87.3476 207.39C87.3318 208.897 87.5129 210.62 87.9268 212.586L87.3476 207.39Z" stroke="black"/>
<path d="M123.527 201.282L108.254 218.874C104.552 218.288 97.3551 219.226 98.1881 227.67C99.4609 230.368 103.811 234.567 111.031 229.781" stroke="black"/>
<path d="M102.436 212.787C100.219 213.717 96.8584 216.552 101.157 220.456" stroke="black"/>
<path d="M90.9311 211.589C84.46 211.589 79.9062 230.283 94.0469 228.366" stroke="black"/>
<path d="M117.295 199.605L110.585 205.117" stroke="black"/>
</svg>
