<svg width="290" height="399" viewBox="0 0 290 399" fill="none" xmlns="http://www.w3.org/2000/svg">
<path d="M33.5 102C37.9 25.2 113 10.3333 150 12.5C241.6 19.3 258 70.5 260 107.5C261.2 99.9 269 81.5 273 79C274 81.8333 276 88.2 276 91C276 93.8 274.667 96.8333 274 98L268.272 113.5C280.272 141.1 263.667 183 252.5 199.5C257.7 218.7 253.167 230.333 250 232C259.2 252.4 228.167 292.5 211.5 310C201.5 337 189.333 355.5 184.5 356.5C184.035 356.367 183.56 356.239 183.076 356.116C163.146 351.054 127.283 354.222 111.5 356.5C93.9 355.3 78.8333 323.333 73.5 307.5C38.7 274.3 35.3333 240.667 38 228C28.8 228 32.8333 209.667 36 200.5C23.5 183 23.5 172 18.5 163.5C14.5 156.7 16.8333 137.667 18.5 129L19.9826 118.5V102C19.1981 99.3532 18.6645 97.4046 18.5 96.5C17.5 91 21.5 69 23.5 80.5C25.1 89.7 30.8333 98.6667 33.5 102Z" fill="#FD3030"/>
<path d="M33.5 144C29.7927 132.878 23.0142 112.227 19.9826 102M19.9826 102C19.1981 99.3532 18.6645 97.4046 18.5 96.5C17.5 91 21.5 69 23.5 80.5C25.1 89.7 30.8333 98.6667 33.5 102C37.9 25.2 113 10.3333 150 12.5C241.6 19.3 258 70.5 260 107.5C261.2 99.9 269 81.5 273 79C274 81.8333 276 88.2 276 91C276 93.8 274.667 96.8333 274 98L257 144M19.9826 102V118.5L18.5 129C16.8333 137.667 14.5 156.7 18.5 163.5C23.5 172 23.5 183 36 200.5C32.8333 209.667 28.8 228 38 228C35.3333 240.667 38.7 274.3 73.5 307.5C78.8333 323.333 93.9 355.3 111.5 356.5C127.283 354.222 163.146 351.054 183.076 356.116C183.56 356.239 184.035 356.367 184.5 356.5C189.333 355.5 201.5 337 211.5 310C228.167 292.5 259.2 252.4 250 232C253.167 230.333 257.7 218.7 252.5 199.5C263.667 183 280.272 141.1 268.272 113.5" stroke="black"/>
<path d="M68 175.5C79 183.5 106 175.5 113.5 185.5" stroke="black"/>
<path d="M177 185C177 178.5 207.5 183.5 220.5 175.5" stroke="black"/>
<path d="M222 114.5C191.6 102.1 199.333 80 207 70.5C259.4 55.3 272.167 19.8333 272 4C283.2 64.8 243.333 103 222 114.5Z" fill="#FD3030" stroke="black"/>
<path d="M64.5 114C107 109.5 93.3333 74.5 81 68C40.2 56 25.3333 18.3333 23 1C7 50.6 44.1667 97.8333 64.5 114Z" fill="#FD3030" stroke="black"/>
<path d="M113 320C117.167 321.667 129.4 323.3 145 316.5C144.667 316.5 144.9 316.5 148.5 316.5C152.1 316.5 156.333 318.833 158 320C162.5 321.833 172.8 324.4 178 320" stroke="black"/>
<path d="M165.312 339.596C168.133 340.58 170.881 341.863 173.5 343.5C171.146 342.416 168.293 341.064 165.312 339.596Z" fill="#FD3030"/>
<path d="M117.5 343.5C128.167 338.5 154.3 331.5 173.5 343.5C163 338.667 142.6 328.5 145 326.5" stroke="black"/>
<path d="M63 212.5L81 230.5C87.5 232.333 100.8 231.3 102 212.5" stroke="black"/>
<path d="M64 217.5C62 218 57.9 220.8 57.5 228" stroke="black"/>
<path d="M186 311C179 306.5 119 308.5 104.5 309C90 309.5 73.9033 255.748 68.0704 238.5C71.8803 239.167 80.2 239.1 83 233.5C82.2 238.7 94 248.667 100 253C112.8 255.4 133 265.667 141.5 270.5H145.5C154.833 265.667 175.2 256.4 182 258C190.5 260 206.5 227 204.5 233.5C202.9 238.7 209.333 243.833 215.5 244C215.5 244 193 315.5 186 311Z" fill="black"/>
<path d="M53.5 232C46 229 63.1408 240 68.0704 238.5M68.0704 238.5C73.9033 255.748 90 309.5 104.5 309C119 308.5 179 306.5 186 311C193 315.5 215.5 244 215.5 244C209.333 243.833 202.9 238.7 204.5 233.5C206.5 227 190.5 260 182 258C175.2 256.4 154.833 265.667 145.5 270.5H141.5C133 265.667 112.8 255.4 100 253C94 248.667 82.2 238.7 83 233.5C80.2 239.1 71.8803 239.167 68.0704 238.5Z" stroke="black"/>
<path d="M213 226C203.8 223.6 202.5 230 203 233.5C217.8 247.1 229.833 239.167 234 233.5C212 232 224.5 229 213 226Z" fill="#FD3030" stroke="black"/>
<path d="M85.2553 272.5C96.4553 271.3 101.922 263 103.255 259C112.455 261.8 114.089 266.167 113.755 268C109.755 272 100.089 274 95.7553 274.5C87.5887 274.333 74.0553 273.7 85.2553 272.5Z" fill="#FD3030" stroke="black"/>
<path d="M200 276.5C185.6 280.9 174.667 274.667 171 271C164 268 184 257 183.5 260.5C183.1 263.3 194.333 272.333 200 276.5Z" fill="#FD3030" stroke="black"/>
<path d="M104.5 233.5L127 247" stroke="black"/>
<path d="M135.5 251.5C134.833 254 133.9 259.7 135.5 262.5" stroke="black"/>
<path d="M149.5 249C150.167 250.833 151.5 256 151.5 262" stroke="black"/>
<path d="M41.5 179.5C44.3333 189 55.5 209.7 77.5 216.5C80 216.167 90.5 213.6 112.5 206C134.5 198.4 132.667 211.5 129 219" stroke="black"/>
<path d="M158.5 213C160 210.167 163.9 204.7 167.5 205.5" stroke="black"/>
<path d="M165 218C166 214.333 170.4 207.7 180 210.5C189.6 213.3 189.333 224 188 229L184 231.5C181.833 229.833 176.9 227 174.5 229C172.1 231 163.5 236.167 159.5 238.5L173.5 234C169.667 237.5 160.4 244.7 154 245.5C147.6 246.3 140 248.167 134.5 245.5C128.333 239.667 115.5 223.5 101.5 229C92.2522 232.633 104.5 214.324 101.5 218C106.167 211.167 117.5 201.6 125.5 218" stroke="black"/>
<path d="M175.5 196.5C178 196 183.5 195 185.5 195C187.5 195 197.667 196 202.5 196.5C209.5 197.167 225 194.6 231 179" stroke="black"/>
<path d="M235.5 172C234 168.167 227.9 161.5 215.5 165.5C203.1 169.5 190 167.167 182 165.5C178.5 165.333 170.8 167 168 175V179" stroke="black"/>
<path d="M56 169.5C54.3333 165 56.9 157.6 80.5 164C104.1 170.4 107.667 169.333 106.5 168C111.5 169.833 121.3 175.1 120.5 181.5" stroke="black"/>
<path d="M236.5 150C217.833 133.167 179.8 95.9 177 81.5" stroke="black"/>
<path d="M179.5 93.5C189.167 108 212.1 138.5 226.5 144.5" stroke="black"/>
<path d="M54.5 147.5C67.1667 139.333 97 114.4 115 80C114.667 82.6667 112.7 90.6 107.5 101" stroke="black"/>
<path d="M146.686 139.336C146.7 142.144 146.488 145.194 146 148.5C146.037 145.923 146.244 142.742 146.686 139.336Z" fill="#FD3030"/>
<path d="M132 111.5C138.167 113.667 149.6 124.1 146 148.5C146.167 137 149.7 113.5 162.5 111.5" stroke="black"/>
<path d="M136 107L146 115.5L155.5 107" stroke="black"/>
<path d="M211 243.5C185 324 183.5 299.833 176 303.5H119C109.8 308.7 98.8333 289.667 95 279.5L74.5 244.5" stroke="#FD3030"/>
<path d="M186 286C186.8 293.6 181.333 300.167 178.5 302.5C182.1 308.5 188 302.333 190.5 298.5C188.667 291.167 185.2 278.4 186 286Z" fill="#FD3030" stroke="#FD3030"/>
<path d="M113 287.5C110.2 294.7 113.167 300.5 115 302.5C112.333 302.5 106.8 301.7 106 298.5C105 294.5 116.5 278.5 113 287.5Z" fill="#FD3030" stroke="#FD3030"/>
<path d="M115.5 297.5L114.5 301C112.167 300.667 108.2 300.5 111 302.5C113.8 304.5 117.5 303.667 119 303H177.5L182 297.5L180.5 296.5L172.5 298.5V301.5L168.5 297.5H160.5L159 301L157.5 297.5H145L143.5 302.5L141.5 297.5H129L127 301V297.5H115.5Z" fill="#FD3030"/>
<path d="M114.5 271.5L112 265.5H113C121.667 271.833 145.3 281.2 170.5 268V271.5V273L162 277.5L160.5 273V277.5C160.5 279.9 149.167 280.833 143.5 281L141.5 276.5C141.5 277.667 141.3 280.2 140.5 281C139.7 281.8 130.5 279 126 277.5L123.5 273L122.5 275.5L114.5 271.5Z" fill="#FD3030"/>
<path d="M115.5 297.5L114.5 301C112.167 300.667 108.2 300.5 111 302.5C113.8 304.5 117.5 303.667 119 303H177.5L182 297.5L180.5 296.5L172.5 298.5V301.5L168.5 297.5H160.5L159 301L157.5 297.5H145L143.5 302.5L141.5 297.5H129L127 301V297.5H115.5Z" stroke="#FD3030"/>
<path d="M114.5 271.5L112 265.5H113C121.667 271.833 145.3 281.2 170.5 268V271.5V273L162 277.5L160.5 273V277.5C160.5 279.9 149.167 280.833 143.5 281L141.5 276.5C141.5 277.667 141.3 280.2 140.5 281C139.7 281.8 130.5 279 126 277.5L123.5 273L122.5 275.5L114.5 271.5Z" stroke="#FD3030"/>
<path d="M120.5 172C126.667 170.667 139.8 165.4 143 155C144.333 159.167 150 168.1 162 170.5" stroke="black"/>
<path d="M127.5 180.5C131 177.167 138.7 170.5 141.5 170.5C144.3 170.5 147 170.5 148 170.5C150.833 171.833 157.3 175.4 160.5 179" stroke="black"/>
<path d="M126.5 117.5C137 125.333 150.3 146 119.5 166" stroke="black"/>
<path d="M164 118.5C154.5 123.833 141.7 141.1 166.5 167.5" stroke="black"/>
<path d="M116.5 136.5C111.5 136.333 107 130.2 125 115L140 98C140.5 97.8333 141.6 96.6 142 93C142.4 89.4 142.167 78.5 142 73.5" stroke="black"/>
<path d="M175.5 137C179.167 137 182.4 132.8 166 116C160.167 109.333 148.9 95.3 150.5 92.5L148 54.5" stroke="black"/>
<path d="M231 151C187.64 128.433 169.845 101.523 150 27.5" stroke="black"/>
<path d="M52.5 151C86.8641 147.62 142.083 68.7789 143 27" stroke="black"/>
<path d="M127 132.5C131.5 145.833 123.6 169.1 56 155.5C55.3333 154.167 53.3 152.6 50.5 157" stroke="black"/>
<path d="M164.038 133C159.511 146.272 167.992 170.925 236 157.387C236.671 156.06 239.683 155.12 242.5 159.5" stroke="black"/>
<path d="M98 255C106.167 261.833 126.6 275.4 143 275C159.4 274.6 176.167 265.5 182.5 261" stroke="#FD3030"/>
<path d="M119.5 190.5C119.48 190.099 119.447 189.676 119.397 189.236C117.985 186.764 109.279 186.355 104.5 186.5C76.9 196.5 63.6667 182.333 60.5 174C78 157.5 80.5 175 99.5 172.5C113.808 170.617 118.606 182.174 119.397 189.236C119.61 189.609 119.657 190.028 119.5 190.5Z" fill="#FD3030" stroke="black"/>
<path d="M172.093 193C172.111 192.629 172.138 192.235 172.174 191.821C173.512 189.586 182.207 190.352 187 190.5C214.557 200.64 225 175.5 226.5 173C203.5 163.5 209.97 175.535 191 173C176.637 171.081 172.824 184.504 172.174 191.821C171.979 192.147 171.941 192.536 172.093 193Z" fill="#FD3030" stroke="black"/>
<path d="M62 183C65.5904 188.451 73.518 199.858 114.5 194" stroke="black"/>
<path d="M243.5 190.5C235.833 203.5 218.815 223.907 203 216C178 203.5 163.5 210.5 164 216" stroke="black"/>
<circle cx="193.5" cy="181.5" r="8" fill="black" stroke="black"/>
<circle cx="95.5" cy="180.5" r="8" fill="black" stroke="black"/>
<path d="M183.5 277L226.526 302.086C232 293 267.476 296 267.476 317.742C282.729 322.559 296.5 331.5 284.5 358.5C295.5 364.5 285.5 398.5 263.5 389C239.5 408.6 223.167 392.167 218 381.5C190.4 383.5 194.5 365.333 200 356L179 325C165.8 306.2 164.833 291.5 166 286.5L162 278L171 273.5V271C171 271.8 179.333 275.333 183.5 277Z" fill="white"/>
<path d="M267.476 317.742C267.476 296 232 293 226.526 302.086L183.5 277C179.333 275.333 171 271.8 171 271C171 270.2 171 272.333 171 273.5L162 278L166 286.5C164.833 291.5 165.8 306.2 179 325L200 356C194.5 365.333 190.4 383.5 218 381.5C223.167 392.167 239.5 408.6 263.5 389C285.5 398.5 295.5 364.5 284.5 358.5C296.5 331.5 282.729 322.559 267.476 317.742ZM267.476 317.742C267.509 320.884 267.131 324.48 266.267 328.581L267.476 317.742Z" stroke="black"/>
<path d="M192 305L223.862 341.7C231.586 340.477 246.599 342.434 244.861 360.05C242.206 365.678 233.13 374.437 218.069 364.454" stroke="black"/>
<path d="M236 329C240.626 330.939 247.636 336.855 238.669 345" stroke="black"/>
<path d="M260 326.5C273.5 326.5 283 365.5 253.5 361.5" stroke="black"/>
<path d="M205 301.5L219 313" stroke="black"/>
<path d="M101.526 274.881L60.5533 298.77C55.34 290.117 21.5572 292.974 21.5572 313.678C7.03181 318.266 -6.0824 326.78 5.34503 352.492C-5.13011 358.206 4.39275 390.583 25.343 381.537C48.1979 400.201 63.7519 384.552 68.672 374.394C94.9551 376.299 91.0507 358.999 85.8132 350.111L105.811 320.59C118.381 302.687 119.302 288.689 118.191 283.927L122 275.833L113.429 271.548V269.167C113.429 269.929 105.494 273.293 101.526 274.881Z" fill="white"/>
<path d="M21.5572 313.678C21.5572 292.974 55.34 290.117 60.5533 298.77L101.526 274.881C105.494 273.293 113.429 269.929 113.429 269.167C113.429 268.405 113.429 270.437 113.429 271.548L122 275.833L118.191 283.927C119.302 288.689 118.381 302.687 105.811 320.59L85.8132 350.111C91.0507 358.999 94.9551 376.299 68.672 374.394C63.7519 384.552 48.1979 400.201 25.343 381.537C4.39274 390.583 -5.13011 358.206 5.34503 352.492C-6.0824 326.78 7.03181 318.266 21.5572 313.678ZM21.5572 313.678C21.5258 316.671 21.8855 320.095 22.7077 324L21.5572 313.678Z" stroke="black"/>
<path d="M93.4314 301.545L63.0901 336.494C55.7347 335.329 41.4375 337.193 43.0925 353.968C45.6209 359.327 54.2636 367.668 68.6067 358.162" stroke="black"/>
<path d="M51.5309 324.399C47.1257 326.246 40.4502 331.879 48.9894 339.636" stroke="black"/>
<path d="M28.676 322.019C15.8202 322.019 6.77345 359.158 34.8659 355.349" stroke="black"/>
<path d="M81.0517 298.212L67.7197 309.163" stroke="black"/>
</svg>
