<svg width="24" height="24" viewBox="0 0 24 24" fill="none" xmlns="http://www.w3.org/2000/svg">
<path fill-rule="evenodd" clip-rule="evenodd" d="M12.25 3.5C7.425 3.5 3.5 7.425 3.5 12.25C3.5 17.075 7.425 21 12.25 21C17.075 21 21 17.075 21 12.25C21 7.425 17.075 3.5 12.25 3.5ZM12.25 22.5C6.598 22.5 2 17.902 2 12.25C2 6.598 6.598 2 12.25 2C17.902 2 22.5 6.598 22.5 12.25C22.5 17.902 17.902 22.5 12.25 22.5Z" fill="white"/>
<path fill-rule="evenodd" clip-rule="evenodd" d="M11.134 10.0864C10.957 11.0874 10.954 13.4784 11.131 14.4284C12.009 14.1184 13.911 12.8684 14.423 12.2494C13.913 11.6484 12.035 10.4244 11.134 10.0864ZM10.828 16.0014C10.558 16.0014 10.302 15.9244 10.093 15.7164C9.932 15.5574 9.502 15.1324 9.5 12.3334C9.499 9.36139 9.946 8.91939 10.093 8.77239C10.616 8.25439 11.468 8.60939 11.831 8.76139C12.351 8.97839 16 10.8474 16 12.2454C16 13.5554 12.716 15.3874 11.877 15.7374C11.55 15.8734 11.177 16.0014 10.828 16.0014Z" fill="white"/>
</svg>
