<svg width="25" height="25" viewBox="0 0 25 25" fill="none" xmlns="http://www.w3.org/2000/svg">
<mask id="mask0_51_246" style="mask-type:luminance" maskUnits="userSpaceOnUse" x="4" y="15" width="17" height="8">
<path fill-rule="evenodd" clip-rule="evenodd" d="M4.1665 15.1001H20.6664V22.7813H4.1665V15.1001Z" fill="white"/>
</mask>
<g mask="url(#mask0_51_246)">
<path fill-rule="evenodd" clip-rule="evenodd" d="M12.4175 16.6626C7.979 16.6626 5.729 17.4251 5.729 18.9303C5.729 20.4491 7.979 21.2188 12.4175 21.2188C16.855 21.2188 19.104 20.4563 19.104 18.9511C19.104 17.4324 16.855 16.6626 12.4175 16.6626ZM12.4175 22.7813C10.3769 22.7813 4.1665 22.7813 4.1665 18.9303C4.1665 15.497 8.87588 15.1001 12.4175 15.1001C14.4582 15.1001 20.6665 15.1001 20.6665 18.9511C20.6665 22.3845 15.9582 22.7813 12.4175 22.7813Z" fill="#61646B"/>
</g>
<mask id="mask1_51_246" style="mask-type:luminance" maskUnits="userSpaceOnUse" x="6" y="2" width="12" height="12">
<path fill-rule="evenodd" clip-rule="evenodd" d="M6.88525 2.08344H17.9478V13.1445H6.88525V2.08344Z" fill="white"/>
</mask>
<g mask="url(#mask1_51_246)">
<path fill-rule="evenodd" clip-rule="evenodd" d="M12.4176 3.57052C10.1874 3.57052 8.37279 5.38406 8.37279 7.61427C8.36549 9.83719 10.1665 11.6497 12.3874 11.658L12.4176 12.4018V11.658C14.6467 11.658 16.4603 9.84344 16.4603 7.61427C16.4603 5.38406 14.6467 3.57052 12.4176 3.57052ZM12.4176 13.1445H12.3842C9.3405 13.1351 6.87487 10.6528 6.88529 7.61115C6.88529 4.56427 9.36654 2.08302 12.4176 2.08302C15.4676 2.08302 17.9478 4.56427 17.9478 7.61427C17.9478 10.6643 15.4676 13.1445 12.4176 13.1445Z" fill="#61646B"/>
</g>
</svg>
